<svg xmlns="http://www.w3.org/2000/svg" width="1024" height="1024" viewBox="0 0 1024 1024" version="1.1"><path d="M 508.500 241.132 C 487.233 243.168, 460.822 249.491, 440.663 257.373 C 395.965 274.850, 360.145 303.311, 330.376 345 C 314.673 366.991, 303.653 390.227, 296.539 416.346 C 290.584 438.214, 289.524 447.811, 289.511 480 C 289.499 509.815, 290.075 515.617, 295.111 536.500 C 299.872 556.244, 314.954 590.665, 326.054 607.124 C 350.364 643.168, 375.407 667.372, 410.142 688.394 C 423.434 696.438, 455.087 709.385, 471.398 713.449 C 495.738 719.513, 533.217 722.456, 556.086 720.098 C 591.414 716.455, 630.886 703.634, 658.342 686.884 C 680.552 673.334, 687.444 667.773, 706 648.424 C 721.389 632.377, 723.283 630.015, 736.018 611 C 755.691 581.625, 768.454 550.848, 774.170 519 C 777.129 502.511, 777.863 465.232, 775.557 448.500 C 768.064 394.125, 745.281 349.029, 705.074 308.985 C 660.239 264.333, 599.514 239.679, 535.500 240.141 C 525.600 240.212, 513.450 240.658, 508.500 241.132 M 509 260.033 C 489.179 262.022, 466.341 267.461, 448.479 274.445 C 420.043 285.564, 396.444 300.633, 375.637 320.958 C 359.385 336.834, 351.891 345.623, 342.348 360 C 330.911 377.231, 324.721 389.857, 317.900 409.866 C 306.839 442.315, 304.066 485.323, 310.573 523.500 C 312.619 535.499, 322.295 564.444, 326.321 570.605 L 329.519 575.500 337.010 576.113 C 341.129 576.449, 344.837 576.535, 345.250 576.304 C 345.663 576.072, 346 570.959, 346 564.941 L 346 554 336.667 554 C 331.533 554, 327.041 553.708, 326.685 553.351 C 326.328 552.995, 327.640 550.927, 329.601 548.756 C 331.562 546.586, 334.959 542.040, 337.150 538.655 L 341.134 532.500 335.317 532.243 C 324.200 531.751, 324.249 531.816, 329.887 524.848 C 332.602 521.492, 336.892 515.091, 339.419 510.623 L 344.014 502.500 336.757 501.379 C 332.766 500.763, 329.382 500.201, 329.238 500.129 C 329.095 500.058, 330.900 497.637, 333.250 494.750 C 337.486 489.545, 345.214 476.965, 348.607 469.750 C 349.577 467.688, 350.941 466, 351.638 466 C 352.336 466, 356.740 472.413, 361.425 480.250 C 366.110 488.087, 370.725 495.719, 371.679 497.210 C 372.633 498.700, 373.079 500.255, 372.669 500.665 C 372.259 501.075, 368.988 501.597, 365.401 501.825 C 359.878 502.177, 358.974 502.491, 359.499 503.870 C 361.062 507.977, 367.336 518.196, 371.890 524.055 C 377.583 531.377, 377.383 531.808, 368.236 531.930 L 362.971 532 366.117 538.233 C 367.848 541.661, 370.779 546.450, 372.632 548.876 C 374.484 551.303, 376 553.735, 376 554.283 C 376 554.907, 372.646 555.086, 367 554.764 L 358 554.251 358 563.049 C 358 570.801, 358.278 572.183, 360.340 574.673 C 361.627 576.228, 364.539 580.706, 366.811 584.625 C 375.812 600.149, 392.028 616.838, 398.234 616.965 C 399.790 616.996, 399.944 615.879, 399.734 606.120 L 399.500 595.239 390.750 594.545 C 385.938 594.162, 382 593.589, 382 593.269 C 382 592.950, 383.037 591.296, 384.305 589.594 C 387.349 585.509, 391.570 578.065, 392.440 575.250 C 393.108 573.088, 392.899 573, 387.067 573 C 383.301 573, 381 572.580, 381 571.894 C 381 571.286, 382.287 569.148, 383.859 567.144 C 385.432 565.140, 389.006 559.833, 391.802 555.352 C 396.692 547.515, 396.802 547.181, 394.693 546.615 C 393.487 546.292, 391.509 546.021, 390.297 546.014 C 389.085 546.006, 387.050 545.524, 385.773 544.943 L 383.453 543.885 387.476 539.661 C 389.689 537.338, 393.946 530.951, 396.935 525.468 C 399.925 519.986, 402.900 514.701, 403.547 513.725 C 404.577 512.171, 405.446 513.170, 410.507 521.725 C 413.689 527.101, 418.295 534.343, 420.745 537.818 C 423.194 541.293, 424.964 544.370, 424.678 544.655 C 424.392 544.941, 421.461 545.420, 418.166 545.719 L 412.173 546.262 416.170 553.977 C 418.369 558.220, 421.930 564.020, 424.084 566.866 C 426.238 569.712, 428 572.256, 428 572.520 C 428 572.784, 425.027 573, 421.393 573 C 415.518 573, 414.859 573.194, 415.442 574.750 C 416.801 578.380, 422.634 587.325, 426.096 591.089 L 429.693 595 420.346 595 L 411 595 411.015 605.250 C 411.024 610.888, 411.433 616.136, 411.925 616.913 C 413.305 619.093, 431.919 614.063, 445.673 607.793 L 457 602.629 457.002 594.065 L 457.004 585.500 446.502 585.814 C 440.726 585.987, 436 585.886, 436 585.590 C 436 585.293, 439.150 580.272, 443 574.430 C 446.850 568.589, 450 563.402, 450 562.905 C 450 562.407, 447.337 562, 444.082 562 C 434.603 562, 434.479 561.763, 439.980 554.171 C 442.639 550.502, 446.881 543.624, 449.406 538.886 L 453.998 530.272 449.359 529.636 C 446.808 529.286, 443.434 529, 441.860 529 C 440.287 529, 439.012 528.663, 439.027 528.250 C 439.041 527.837, 440.954 524.970, 443.277 521.878 C 445.599 518.785, 450.650 510.132, 454.500 502.648 C 458.350 495.164, 461.950 489.179, 462.500 489.349 C 463.050 489.519, 465.442 493.173, 467.815 497.470 C 473.010 506.876, 481.319 519.473, 484.813 523.240 C 486.211 524.746, 487.093 526.240, 486.774 526.559 C 486.455 526.878, 482.775 527.398, 478.597 527.714 C 474.419 528.030, 471 528.464, 471 528.678 C 471 531.026, 481.428 547.928, 487.665 555.686 L 491.030 559.873 486.460 560.558 C 483.946 560.935, 480.339 560.992, 478.445 560.685 C 476.550 560.377, 475 560.335, 475 560.591 C 475 562.175, 481.533 573.528, 485.330 578.543 L 489.840 584.500 480.670 585.110 C 475.626 585.446, 470.889 585.491, 470.142 585.212 C 469.021 584.792, 468.911 586.777, 469.510 596.602 C 469.909 603.146, 470.296 608.549, 470.368 608.610 C 470.441 608.670, 475.219 608.143, 480.987 607.437 C 486.756 606.732, 498.566 605.585, 507.233 604.889 C 515.901 604.193, 523.556 603.275, 524.246 602.849 C 525.085 602.332, 525.613 598.587, 525.841 591.538 L 526.182 581 512.591 581 C 505.116 581, 499 580.727, 499 580.393 C 499 580.059, 502.614 574.434, 507.031 567.893 C 511.449 561.352, 515.322 555.325, 515.638 554.500 C 516.116 553.254, 515.023 553, 509.189 553 C 498.313 553, 498.317 553.008, 504.966 543.671 C 510.185 536.343, 522.304 517.041, 521.729 516.973 C 521.603 516.958, 518.350 516.831, 514.500 516.691 C 505.215 516.352, 504.256 515.687, 507.246 511.660 C 511.356 506.126, 518.610 493.824, 523.965 483.308 C 529.255 472.919, 531.167 470.367, 532.871 471.420 C 533.398 471.746, 536.621 477.297, 540.033 483.756 C 543.444 490.215, 549.109 499.769, 552.620 504.986 C 559.938 515.858, 559.954 515.813, 548.763 515.930 L 542.025 516 544.424 521.425 C 547.349 528.039, 553.472 537.172, 560.666 545.653 L 566.051 552 556.958 552 C 547.999 552, 547.875 552.033, 548.527 554.250 C 549.498 557.550, 554.799 566.198, 560.200 573.292 C 562.800 576.706, 564.944 579.837, 564.964 580.250 C 564.984 580.663, 559.087 581, 551.859 581 L 538.718 581 539.262 589.250 C 539.561 593.788, 540.092 598.208, 540.442 599.073 C 541.325 601.257, 556.008 604.633, 575 607.020 C 597.525 609.851, 595 611.084, 595.001 597.250 L 595.002 585.500 584.001 585.838 C 574.848 586.120, 573 585.931, 573 584.711 C 573 583.905, 573.652 582.704, 574.449 582.042 C 575.952 580.795, 588 562.601, 588 561.579 C 588 561.261, 584.625 561, 580.500 561 C 576.375 561, 573 560.600, 573 560.110 C 573 559.621, 575.019 556.477, 577.487 553.124 C 581.605 547.531, 592 530.139, 592 528.843 C 592 528.539, 588.797 528.022, 584.882 527.693 C 580.966 527.365, 577.569 526.903, 577.333 526.666 C 577.096 526.429, 579.067 523.370, 581.712 519.868 C 585.841 514.402, 594.416 499.937, 598.974 490.750 C 599.724 489.238, 600.708 488, 601.161 488 C 601.613 488, 604.461 492.941, 607.490 498.980 C 610.519 505.019, 615.491 513.644, 618.539 518.146 C 624.905 527.549, 624.767 527.961, 615.237 527.985 L 608.975 528 612.604 535.250 C 616.622 543.276, 623.393 553.208, 627.361 556.895 C 628.779 558.213, 629.701 559.675, 629.410 560.145 C 629.120 560.615, 625.309 561, 620.941 561 C 615.083 561, 613 561.342, 613 562.303 C 613 563.019, 616.150 568.445, 620 574.359 C 623.850 580.274, 627 585.312, 627 585.556 C 627 585.800, 622.500 586, 617 586 L 607 586 607 592.435 C 607 599.539, 608.255 604, 610.253 604 C 610.970 604, 614.828 605.568, 618.827 607.484 C 628.911 612.317, 645.941 618, 650.338 618 L 654 618 654 606.500 L 654 595 648.250 594.989 C 645.087 594.983, 640.825 594.701, 638.777 594.363 L 635.054 593.747 642.069 583.624 C 649.836 572.413, 649.830 572.348, 640.917 572.100 C 638.946 572.045, 637.055 571.722, 636.715 571.382 C 636.375 571.042, 639.280 566.063, 643.171 560.317 C 647.061 554.571, 650.302 549.111, 650.372 548.185 C 650.472 546.865, 649.375 546.387, 645.311 545.978 C 642.458 545.691, 639.857 545.190, 639.531 544.865 C 639.206 544.540, 641.766 540.032, 645.220 534.847 C 648.674 529.662, 653.006 522.400, 654.846 518.710 C 656.686 515.019, 658.733 512, 659.396 512 C 660.059 512, 661.634 514.138, 662.895 516.750 C 666.437 524.083, 671.956 532.868, 676.614 538.587 L 680.845 543.781 677.797 544.391 C 676.121 544.726, 673.017 545, 670.900 545 C 667.151 545, 667.076 545.070, 668.054 547.641 C 669.421 551.238, 679.601 566.857, 682.790 570.250 L 685.374 573 679.437 573.014 C 676.172 573.021, 672.524 573.289, 671.332 573.609 L 669.164 574.190 671.941 578.845 C 673.468 581.405, 676.364 585.975, 678.377 589 L 682.037 594.500 673.518 594.789 L 665 595.078 665 606.039 C 665 612.068, 665.405 617, 665.901 617 C 667.359 617, 678.016 608.594, 684.520 602.313 C 687.830 599.116, 693.183 592.450, 696.413 587.500 C 699.644 582.550, 703.798 576.811, 705.644 574.747 C 708.883 571.125, 709 570.705, 709 562.661 L 709 554.328 698.500 554.795 C 686.544 555.327, 685.729 554.687, 690.850 548.785 C 694.077 545.066, 702 533.585, 702 532.629 C 702 532.283, 699.102 532, 695.559 532 C 692.016 532, 688.852 531.570, 688.527 531.044 C 688.203 530.519, 690.190 527.292, 692.945 523.874 C 695.699 520.456, 700.159 513.967, 702.857 509.453 L 707.761 501.248 700.363 500.773 C 696.294 500.512, 692.745 500.079, 692.477 499.810 C 692.209 499.542, 694.424 495.684, 697.400 491.238 C 700.377 486.791, 704.953 479.181, 707.570 474.327 C 710.188 469.472, 712.469 465.323, 712.640 465.107 C 713.404 464.144, 716.396 467.840, 718.982 472.940 C 720.532 475.998, 724.751 482.997, 728.357 488.493 C 732.755 495.196, 734.582 498.818, 733.908 499.493 C 733.355 500.047, 730.281 500.500, 727.077 500.500 L 721.253 500.500 723.681 505.997 C 726.630 512.675, 731.097 519.771, 736.684 526.655 L 740.868 531.810 733.900 532.510 C 727.390 533.164, 726.972 533.351, 727.542 535.355 C 727.878 536.535, 730.368 540.809, 733.076 544.853 C 735.784 548.897, 738 552.610, 738 553.103 C 738 553.596, 733.934 554, 728.965 554 L 719.930 554 720.215 564.243 L 720.500 574.486 726 575.928 C 729.025 576.721, 731.756 577.744, 732.069 578.201 C 732.739 579.180, 737.821 572.297, 740.872 566.277 C 748.119 551.981, 756.186 522.104, 758.093 502.500 C 760.538 477.368, 757.883 442.636, 751.864 421 C 738.935 374.524, 704.088 326.472, 663.341 298.932 C 634.753 279.610, 612.761 270.368, 579.046 263.507 C 558.336 259.293, 530.249 257.900, 509 260.033 M 520.299 287.008 C 513.595 290.359, 505.903 297.880, 501.515 305.378 C 496.231 314.406, 493.114 330.536, 491.462 357.408 C 490.653 370.557, 489.497 383.155, 488.892 385.402 C 486.575 394.005, 481.999 400.890, 476.800 403.595 C 469.971 407.148, 465.596 404.514, 458.611 392.644 C 454.262 385.256, 450.398 380.585, 440.326 370.542 C 427.344 357.598, 421.119 353.261, 414.806 352.761 C 412.275 352.561, 411.597 352.852, 411.912 354 C 412.710 356.904, 412.701 413.866, 411.902 415.159 C 411.072 416.502, 410.449 415.284, 406.564 404.709 C 404.547 399.222, 402.951 399.538, 400.914 405.830 C 400.260 407.848, 398.451 412.048, 396.893 415.162 C 392.648 423.646, 387.155 442.849, 385.880 453.654 C 384.447 465.809, 385.162 482.155, 387.591 492.750 C 388.631 497.288, 389.711 501, 389.991 500.999 C 390.271 500.999, 393.120 496.996, 396.323 492.105 C 399.526 487.213, 403.282 482.151, 404.670 480.856 L 407.193 478.500 409.847 481.675 C 411.306 483.421, 414.931 489.496, 417.901 495.175 C 420.872 500.854, 425.372 508.650, 427.901 512.500 L 432.500 519.500 433.193 511.857 C 434.238 500.336, 438.471 482.937, 442.343 474.244 C 444.240 469.985, 446.124 465.375, 446.529 464 C 447.914 459.293, 459.112 444.980, 464.554 440.960 C 467.503 438.782, 470.171 437, 470.485 437 C 470.799 437, 470.775 439.813, 470.431 443.250 C 469.591 451.658, 471.805 460.660, 477.501 472.002 C 481.658 480.279, 488.085 489, 490.028 489 C 490.466 489, 491.125 487.087, 491.493 484.750 C 492.282 479.731, 495.184 469.714, 496.056 469 C 496.391 468.725, 498.702 465.125, 501.190 461 C 509.043 447.981, 516.881 431.606, 518.454 424.935 C 520.416 416.609, 520.411 402.387, 518.441 392.003 C 517.584 387.483, 517.046 383.621, 517.246 383.421 C 518.335 382.332, 526.803 388.055, 534.010 394.751 C 549.843 409.459, 562.913 429.780, 567.616 447 C 569.594 454.241, 570.193 477.787, 568.614 486.250 C 567.865 490.265, 567.970 491, 569.287 491 C 571.982 491, 576.562 486.322, 582.742 477.257 C 591.760 464.030, 595.110 452.458, 593.088 441.518 C 592.493 438.297, 592.187 435.479, 592.410 435.257 C 593.398 434.269, 598.955 438.274, 604.053 443.647 C 610.845 450.807, 614.594 456.227, 619.493 465.973 C 628.451 483.794, 632.665 499.132, 631.818 510.841 C 631.309 517.879, 632.847 519.131, 635.559 513.886 C 636.444 512.174, 639.156 507.870, 641.584 504.323 C 644.013 500.776, 646 497.294, 646 496.585 C 646 495.876, 648.025 492.213, 650.500 488.445 C 652.975 484.677, 655 480.785, 655 479.797 C 655 478.809, 655.403 478, 655.895 478 C 657.697 478, 669.066 492.552, 671.670 498.193 C 673.145 501.387, 674.650 504, 675.015 504 C 676.149 504, 677.869 499.362, 680.679 488.730 C 685.631 469.990, 683.915 443.795, 676.357 422.766 C 666.462 395.232, 646.910 368.431, 627.522 355.828 C 619.157 350.389, 610.483 346.183, 609.553 347.114 C 609.331 347.335, 609.784 350.213, 610.559 353.508 C 613.501 366.015, 611.689 382.285, 606.471 390.205 C 604.801 392.741, 602.815 394.275, 600.178 395.065 C 593.845 396.962, 590.919 394.738, 585.946 384.249 C 578.215 367.944, 570.770 359.486, 550.500 343.981 C 527.973 326.749, 523.610 320.118, 523.539 303 C 523.511 296.090, 523.988 292.307, 525.292 289.125 C 526.277 286.719, 526.914 284.580, 526.706 284.373 C 526.499 284.165, 523.616 285.351, 520.299 287.008 M 573.274 302.239 C 568.502 310.180, 567.344 315.993, 569.439 321.480 C 570.987 325.533, 576.836 332, 578.953 332 C 581.379 332, 583.276 330.379, 585.150 326.705 C 588.335 320.464, 587.434 313.055, 582.445 304.448 C 580.275 300.705, 578.036 297.492, 577.468 297.310 C 576.900 297.128, 575.013 299.346, 573.274 302.239 M 457.614 328.250 C 455.346 331.815, 452.999 339.732, 453.010 343.785 C 453.022 348.617, 456.989 357.060, 460.570 359.876 C 464.884 363.269, 468.053 362.386, 470.750 357.038 C 475.068 348.476, 472.836 338.533, 464.739 330.250 C 462.453 327.913, 460.238 326, 459.815 326 C 459.392 326, 458.402 327.012, 457.614 328.250 M 472 752.975 C 451.611 753.983, 435.303 755.761, 432 757.336 C 430.157 758.214, 429.500 759.312, 429.500 761.513 C 429.500 763.936, 430.164 764.825, 433.017 766.221 C 438.683 768.993, 475.667 770.342, 546 770.342 C 619.228 770.341, 633.137 769.349, 636.043 763.920 C 637.307 761.558, 635.908 758.556, 632.756 756.869 C 628.515 754.600, 595.391 753.041, 542 752.600 C 512.575 752.357, 481.075 752.526, 472 752.975 M 347.607 757.868 C 343.909 758.676, 342.097 761.338, 343.603 763.750 C 345.329 766.513, 349.085 767.969, 354.527 767.985 C 360.426 768.003, 364 765.933, 364 762.500 C 364 757.818, 356.954 755.828, 347.607 757.868 M 389.272 758.190 C 383.156 761.198, 386.738 766.917, 394.861 767.111 C 402.495 767.293, 404.405 766.936, 406.451 764.943 C 408.038 763.397, 408.220 762.527, 407.430 760.272 C 406.495 757.604, 406.177 757.492, 398.979 757.297 C 394.866 757.186, 390.497 757.588, 389.272 758.190 M 659.125 757.902 C 657.247 759.091, 657.391 763.820, 659.367 765.795 C 660.549 766.977, 662.872 767.412, 668.008 767.412 C 673.798 767.412, 675.400 767.045, 677.121 765.323 C 679.688 762.756, 678.986 759.770, 675.434 758.152 C 672.482 756.807, 661.128 756.633, 659.125 757.902 M 706.250 757.706 C 704.470 758.048, 704 758.815, 704 761.370 C 704 766.057, 705.522 767, 713.089 767 C 718.227 767, 720.326 766.551, 722.139 765.063 C 724.056 763.490, 724.293 762.784, 723.402 761.313 C 721.137 757.575, 714.345 756.147, 706.250 757.706" stroke="none" fill="#20190c" fill-rule="evenodd"/><path d="M 0 512.001 L 0 1024.002 512.250 1023.751 L 1024.500 1023.500 1024.751 511.750 L 1025.002 0 512.501 0 L 0 0 0 512.001 M 0.496 512.500 C 0.496 794.100, 0.610 909.151, 0.750 768.168 C 0.890 627.186, 0.890 396.786, 0.750 256.168 C 0.610 115.551, 0.496 230.900, 0.496 512.500 M 508.500 241.132 C 487.233 243.168, 460.822 249.491, 440.663 257.373 C 395.965 274.850, 360.145 303.311, 330.376 345 C 314.673 366.991, 303.653 390.227, 296.539 416.346 C 290.584 438.214, 289.524 447.811, 289.511 480 C 289.499 509.815, 290.075 515.617, 295.111 536.500 C 299.872 556.244, 314.954 590.665, 326.054 607.124 C 350.364 643.168, 375.407 667.372, 410.142 688.394 C 423.434 696.438, 455.087 709.385, 471.398 713.449 C 495.738 719.513, 533.217 722.456, 556.086 720.098 C 591.414 716.455, 630.886 703.634, 658.342 686.884 C 680.552 673.334, 687.444 667.773, 706 648.424 C 721.389 632.377, 723.283 630.015, 736.018 611 C 755.691 581.625, 768.454 550.848, 774.170 519 C 777.129 502.511, 777.863 465.232, 775.557 448.500 C 768.064 394.125, 745.281 349.029, 705.074 308.985 C 660.239 264.333, 599.514 239.679, 535.500 240.141 C 525.600 240.212, 513.450 240.658, 508.500 241.132 M 509 260.033 C 489.179 262.022, 466.341 267.461, 448.479 274.445 C 420.043 285.564, 396.444 300.633, 375.637 320.958 C 359.385 336.834, 351.891 345.623, 342.348 360 C 330.911 377.231, 324.721 389.857, 317.900 409.866 C 306.839 442.315, 304.066 485.323, 310.573 523.500 C 312.619 535.499, 322.295 564.444, 326.321 570.605 L 329.519 575.500 337.010 576.113 C 341.129 576.449, 344.837 576.535, 345.250 576.304 C 345.663 576.072, 346 570.959, 346 564.941 L 346 554 336.667 554 C 331.533 554, 327.041 553.708, 326.685 553.351 C 326.328 552.995, 327.640 550.927, 329.601 548.756 C 331.562 546.586, 334.959 542.040, 337.150 538.655 L 341.134 532.500 335.317 532.243 C 324.200 531.751, 324.249 531.816, 329.887 524.848 C 332.602 521.492, 336.892 515.091, 339.419 510.623 L 344.014 502.500 336.757 501.379 C 332.766 500.763, 329.382 500.201, 329.238 500.129 C 329.095 500.058, 330.900 497.637, 333.250 494.750 C 337.486 489.545, 345.214 476.965, 348.607 469.750 C 349.577 467.688, 350.941 466, 351.638 466 C 352.336 466, 356.740 472.413, 361.425 480.250 C 366.110 488.087, 370.725 495.719, 371.679 497.210 C 372.633 498.700, 373.079 500.255, 372.669 500.665 C 372.259 501.075, 368.988 501.597, 365.401 501.825 C 359.878 502.177, 358.974 502.491, 359.499 503.870 C 361.062 507.977, 367.336 518.196, 371.890 524.055 C 377.583 531.377, 377.383 531.808, 368.236 531.930 L 362.971 532 366.117 538.233 C 367.848 541.661, 370.779 546.450, 372.632 548.876 C 374.484 551.303, 376 553.735, 376 554.283 C 376 554.907, 372.646 555.086, 367 554.764 L 358 554.251 358 563.049 C 358 570.801, 358.278 572.183, 360.340 574.673 C 361.627 576.228, 364.539 580.706, 366.811 584.625 C 375.812 600.149, 392.028 616.838, 398.234 616.965 C 399.790 616.996, 399.944 615.879, 399.734 606.120 L 399.500 595.239 390.750 594.545 C 385.938 594.162, 382 593.589, 382 593.269 C 382 592.950, 383.037 591.296, 384.305 589.594 C 387.349 585.509, 391.570 578.065, 392.440 575.250 C 393.108 573.088, 392.899 573, 387.067 573 C 383.301 573, 381 572.580, 381 571.894 C 381 571.286, 382.287 569.148, 383.859 567.144 C 385.432 565.140, 389.006 559.833, 391.802 555.352 C 396.692 547.515, 396.802 547.181, 394.693 546.615 C 393.487 546.292, 391.509 546.021, 390.297 546.014 C 389.085 546.006, 387.050 545.524, 385.773 544.943 L 383.453 543.885 387.476 539.661 C 389.689 537.338, 393.946 530.951, 396.935 525.468 C 399.925 519.986, 402.900 514.701, 403.547 513.725 C 404.577 512.171, 405.446 513.170, 410.507 521.725 C 413.689 527.101, 418.295 534.343, 420.745 537.818 C 423.194 541.293, 424.964 544.370, 424.678 544.655 C 424.392 544.941, 421.461 545.420, 418.166 545.719 L 412.173 546.262 416.170 553.977 C 418.369 558.220, 421.930 564.020, 424.084 566.866 C 426.238 569.712, 428 572.256, 428 572.520 C 428 572.784, 425.027 573, 421.393 573 C 415.518 573, 414.859 573.194, 415.442 574.750 C 416.801 578.380, 422.634 587.325, 426.096 591.089 L 429.693 595 420.346 595 L 411 595 411.015 605.250 C 411.024 610.888, 411.433 616.136, 411.925 616.913 C 413.305 619.093, 431.919 614.063, 445.673 607.793 L 457 602.629 457.002 594.065 L 457.004 585.500 446.502 585.814 C 440.726 585.987, 436 585.886, 436 585.590 C 436 585.293, 439.150 580.272, 443 574.430 C 446.850 568.589, 450 563.402, 450 562.905 C 450 562.407, 447.337 562, 444.082 562 C 434.603 562, 434.479 561.763, 439.980 554.171 C 442.639 550.502, 446.881 543.624, 449.406 538.886 L 453.998 530.272 449.359 529.636 C 446.808 529.286, 443.434 529, 441.860 529 C 440.287 529, 439.012 528.663, 439.027 528.250 C 439.041 527.837, 440.954 524.970, 443.277 521.878 C 445.599 518.785, 450.650 510.132, 454.500 502.648 C 458.350 495.164, 461.950 489.179, 462.500 489.349 C 463.050 489.519, 465.442 493.173, 467.815 497.470 C 473.010 506.876, 481.319 519.473, 484.813 523.240 C 486.211 524.746, 487.093 526.240, 486.774 526.559 C 486.455 526.878, 482.775 527.398, 478.597 527.714 C 474.419 528.030, 471 528.464, 471 528.678 C 471 531.026, 481.428 547.928, 487.665 555.686 L 491.030 559.873 486.460 560.558 C 483.946 560.935, 480.339 560.992, 478.445 560.685 C 476.550 560.377, 475 560.335, 475 560.591 C 475 562.175, 481.533 573.528, 485.330 578.543 L 489.840 584.500 480.670 585.110 C 475.626 585.446, 470.889 585.491, 470.142 585.212 C 469.021 584.792, 468.911 586.777, 469.510 596.602 C 469.909 603.146, 470.296 608.549, 470.368 608.610 C 470.441 608.670, 475.219 608.143, 480.987 607.437 C 486.756 606.732, 498.566 605.585, 507.233 604.889 C 515.901 604.193, 523.556 603.275, 524.246 602.849 C 525.085 602.332, 525.613 598.587, 525.841 591.538 L 526.182 581 512.591 581 C 505.116 581, 499 580.727, 499 580.393 C 499 580.059, 502.614 574.434, 507.031 567.893 C 511.449 561.352, 515.322 555.325, 515.638 554.500 C 516.116 553.254, 515.023 553, 509.189 553 C 498.313 553, 498.317 553.008, 504.966 543.671 C 510.185 536.343, 522.304 517.041, 521.729 516.973 C 521.603 516.958, 518.350 516.831, 514.500 516.691 C 505.215 516.352, 504.256 515.687, 507.246 511.660 C 511.356 506.126, 518.610 493.824, 523.965 483.308 C 529.255 472.919, 531.167 470.367, 532.871 471.420 C 533.398 471.746, 536.621 477.297, 540.033 483.756 C 543.444 490.215, 549.109 499.769, 552.620 504.986 C 559.938 515.858, 559.954 515.813, 548.763 515.930 L 542.025 516 544.424 521.425 C 547.349 528.039, 553.472 537.172, 560.666 545.653 L 566.051 552 556.958 552 C 547.999 552, 547.875 552.033, 548.527 554.250 C 549.498 557.550, 554.799 566.198, 560.200 573.292 C 562.800 576.706, 564.944 579.837, 564.964 580.250 C 564.984 580.663, 559.087 581, 551.859 581 L 538.718 581 539.262 589.250 C 539.561 593.788, 540.092 598.208, 540.442 599.073 C 541.325 601.257, 556.008 604.633, 575 607.020 C 597.525 609.851, 595 611.084, 595.001 597.250 L 595.002 585.500 584.001 585.838 C 574.848 586.120, 573 585.931, 573 584.711 C 573 583.905, 573.652 582.704, 574.449 582.042 C 575.952 580.795, 588 562.601, 588 561.579 C 588 561.261, 584.625 561, 580.500 561 C 576.375 561, 573 560.600, 573 560.110 C 573 559.621, 575.019 556.477, 577.487 553.124 C 581.605 547.531, 592 530.139, 592 528.843 C 592 528.539, 588.797 528.022, 584.882 527.693 C 580.966 527.365, 577.569 526.903, 577.333 526.666 C 577.096 526.429, 579.067 523.370, 581.712 519.868 C 585.841 514.402, 594.416 499.937, 598.974 490.750 C 599.724 489.238, 600.708 488, 601.161 488 C 601.613 488, 604.461 492.941, 607.490 498.980 C 610.519 505.019, 615.491 513.644, 618.539 518.146 C 624.905 527.549, 624.767 527.961, 615.237 527.985 L 608.975 528 612.604 535.250 C 616.622 543.276, 623.393 553.208, 627.361 556.895 C 628.779 558.213, 629.701 559.675, 629.410 560.145 C 629.120 560.615, 625.309 561, 620.941 561 C 615.083 561, 613 561.342, 613 562.303 C 613 563.019, 616.150 568.445, 620 574.359 C 623.850 580.274, 627 585.312, 627 585.556 C 627 585.800, 622.500 586, 617 586 L 607 586 607 592.435 C 607 599.539, 608.255 604, 610.253 604 C 610.970 604, 614.828 605.568, 618.827 607.484 C 628.911 612.317, 645.941 618, 650.338 618 L 654 618 654 606.500 L 654 595 648.250 594.989 C 645.087 594.983, 640.825 594.701, 638.777 594.363 L 635.054 593.747 642.069 583.624 C 649.836 572.413, 649.830 572.348, 640.917 572.100 C 638.946 572.045, 637.055 571.722, 636.715 571.382 C 636.375 571.042, 639.280 566.063, 643.171 560.317 C 647.061 554.571, 650.302 549.111, 650.372 548.185 C 650.472 546.865, 649.375 546.387, 645.311 545.978 C 642.458 545.691, 639.857 545.190, 639.531 544.865 C 639.206 544.540, 641.766 540.032, 645.220 534.847 C 648.674 529.662, 653.006 522.400, 654.846 518.710 C 656.686 515.019, 658.733 512, 659.396 512 C 660.059 512, 661.634 514.138, 662.895 516.750 C 666.437 524.083, 671.956 532.868, 676.614 538.587 L 680.845 543.781 677.797 544.391 C 676.121 544.726, 673.017 545, 670.900 545 C 667.151 545, 667.076 545.070, 668.054 547.641 C 669.421 551.238, 679.601 566.857, 682.790 570.250 L 685.374 573 679.437 573.014 C 676.172 573.021, 672.524 573.289, 671.332 573.609 L 669.164 574.190 671.941 578.845 C 673.468 581.405, 676.364 585.975, 678.377 589 L 682.037 594.500 673.518 594.789 L 665 595.078 665 606.039 C 665 612.068, 665.405 617, 665.901 617 C 667.359 617, 678.016 608.594, 684.520 602.313 C 687.830 599.116, 693.183 592.450, 696.413 587.500 C 699.644 582.550, 703.798 576.811, 705.644 574.747 C 708.883 571.125, 709 570.705, 709 562.661 L 709 554.328 698.500 554.795 C 686.544 555.327, 685.729 554.687, 690.850 548.785 C 694.077 545.066, 702 533.585, 702 532.629 C 702 532.283, 699.102 532, 695.559 532 C 692.016 532, 688.852 531.570, 688.527 531.044 C 688.203 530.519, 690.190 527.292, 692.945 523.874 C 695.699 520.456, 700.159 513.967, 702.857 509.453 L 707.761 501.248 700.363 500.773 C 696.294 500.512, 692.745 500.079, 692.477 499.810 C 692.209 499.542, 694.424 495.684, 697.400 491.238 C 700.377 486.791, 704.953 479.181, 707.570 474.327 C 710.188 469.472, 712.469 465.323, 712.640 465.107 C 713.404 464.144, 716.396 467.840, 718.982 472.940 C 720.532 475.998, 724.751 482.997, 728.357 488.493 C 732.755 495.196, 734.582 498.818, 733.908 499.493 C 733.355 500.047, 730.281 500.500, 727.077 500.500 L 721.253 500.500 723.681 505.997 C 726.630 512.675, 731.097 519.771, 736.684 526.655 L 740.868 531.810 733.900 532.510 C 727.390 533.164, 726.972 533.351, 727.542 535.355 C 727.878 536.535, 730.368 540.809, 733.076 544.853 C 735.784 548.897, 738 552.610, 738 553.103 C 738 553.596, 733.934 554, 728.965 554 L 719.930 554 720.215 564.243 L 720.500 574.486 726 575.928 C 729.025 576.721, 731.756 577.744, 732.069 578.201 C 732.739 579.180, 737.821 572.297, 740.872 566.277 C 748.119 551.981, 756.186 522.104, 758.093 502.500 C 760.538 477.368, 757.883 442.636, 751.864 421 C 738.935 374.524, 704.088 326.472, 663.341 298.932 C 634.753 279.610, 612.761 270.368, 579.046 263.507 C 558.336 259.293, 530.249 257.900, 509 260.033 M 520.299 287.008 C 513.595 290.359, 505.903 297.880, 501.515 305.378 C 496.231 314.406, 493.114 330.536, 491.462 357.408 C 490.653 370.557, 489.497 383.155, 488.892 385.402 C 486.575 394.005, 481.999 400.890, 476.800 403.595 C 469.971 407.148, 465.596 404.514, 458.611 392.644 C 454.262 385.256, 450.398 380.585, 440.326 370.542 C 427.344 357.598, 421.119 353.261, 414.806 352.761 C 412.275 352.561, 411.597 352.852, 411.912 354 C 412.710 356.904, 412.701 413.866, 411.902 415.159 C 411.072 416.502, 410.449 415.284, 406.564 404.709 C 404.547 399.222, 402.951 399.538, 400.914 405.830 C 400.260 407.848, 398.451 412.048, 396.893 415.162 C 392.648 423.646, 387.155 442.849, 385.880 453.654 C 384.447 465.809, 385.162 482.155, 387.591 492.750 C 388.631 497.288, 389.711 501, 389.991 500.999 C 390.271 500.999, 393.120 496.996, 396.323 492.105 C 399.526 487.213, 403.282 482.151, 404.670 480.856 L 407.193 478.500 409.847 481.675 C 411.306 483.421, 414.931 489.496, 417.901 495.175 C 420.872 500.854, 425.372 508.650, 427.901 512.500 L 432.500 519.500 433.193 511.857 C 434.238 500.336, 438.471 482.937, 442.343 474.244 C 444.240 469.985, 446.124 465.375, 446.529 464 C 447.914 459.293, 459.112 444.980, 464.554 440.960 C 467.503 438.782, 470.171 437, 470.485 437 C 470.799 437, 470.775 439.813, 470.431 443.250 C 469.591 451.658, 471.805 460.660, 477.501 472.002 C 481.658 480.279, 488.085 489, 490.028 489 C 490.466 489, 491.125 487.087, 491.493 484.750 C 492.282 479.731, 495.184 469.714, 496.056 469 C 496.391 468.725, 498.702 465.125, 501.190 461 C 509.043 447.981, 516.881 431.606, 518.454 424.935 C 520.416 416.609, 520.411 402.387, 518.441 392.003 C 517.584 387.483, 517.046 383.621, 517.246 383.421 C 518.335 382.332, 526.803 388.055, 534.010 394.751 C 549.843 409.459, 562.913 429.780, 567.616 447 C 569.594 454.241, 570.193 477.787, 568.614 486.250 C 567.865 490.265, 567.970 491, 569.287 491 C 571.982 491, 576.562 486.322, 582.742 477.257 C 591.760 464.030, 595.110 452.458, 593.088 441.518 C 592.493 438.297, 592.187 435.479, 592.410 435.257 C 593.398 434.269, 598.955 438.274, 604.053 443.647 C 610.845 450.807, 614.594 456.227, 619.493 465.973 C 628.451 483.794, 632.665 499.132, 631.818 510.841 C 631.309 517.879, 632.847 519.131, 635.559 513.886 C 636.444 512.174, 639.156 507.870, 641.584 504.323 C 644.013 500.776, 646 497.294, 646 496.585 C 646 495.876, 648.025 492.213, 650.500 488.445 C 652.975 484.677, 655 480.785, 655 479.797 C 655 478.809, 655.403 478, 655.895 478 C 657.697 478, 669.066 492.552, 671.670 498.193 C 673.145 501.387, 674.650 504, 675.015 504 C 676.149 504, 677.869 499.362, 680.679 488.730 C 685.631 469.990, 683.915 443.795, 676.357 422.766 C 666.462 395.232, 646.910 368.431, 627.522 355.828 C 619.157 350.389, 610.483 346.183, 609.553 347.114 C 609.331 347.335, 609.784 350.213, 610.559 353.508 C 613.501 366.015, 611.689 382.285, 606.471 390.205 C 604.801 392.741, 602.815 394.275, 600.178 395.065 C 593.845 396.962, 590.919 394.738, 585.946 384.249 C 578.215 367.944, 570.770 359.486, 550.500 343.981 C 527.973 326.749, 523.610 320.118, 523.539 303 C 523.511 296.090, 523.988 292.307, 525.292 289.125 C 526.277 286.719, 526.914 284.580, 526.706 284.373 C 526.499 284.165, 523.616 285.351, 520.299 287.008 M 573.274 302.239 C 568.502 310.180, 567.344 315.993, 569.439 321.480 C 570.987 325.533, 576.836 332, 578.953 332 C 581.379 332, 583.276 330.379, 585.150 326.705 C 588.335 320.464, 587.434 313.055, 582.445 304.448 C 580.275 300.705, 578.036 297.492, 577.468 297.310 C 576.900 297.128, 575.013 299.346, 573.274 302.239 M 457.614 328.250 C 455.346 331.815, 452.999 339.732, 453.010 343.785 C 453.022 348.617, 456.989 357.060, 460.570 359.876 C 464.884 363.269, 468.053 362.386, 470.750 357.038 C 475.068 348.476, 472.836 338.533, 464.739 330.250 C 462.453 327.913, 460.238 326, 459.815 326 C 459.392 326, 458.402 327.012, 457.614 328.250 M 472 752.975 C 451.611 753.983, 435.303 755.761, 432 757.336 C 430.157 758.214, 429.500 759.312, 429.500 761.513 C 429.500 763.936, 430.164 764.825, 433.017 766.221 C 438.683 768.993, 475.667 770.342, 546 770.342 C 619.228 770.341, 633.137 769.349, 636.043 763.920 C 637.307 761.558, 635.908 758.556, 632.756 756.869 C 628.515 754.600, 595.391 753.041, 542 752.600 C 512.575 752.357, 481.075 752.526, 472 752.975 M 347.607 757.868 C 343.909 758.676, 342.097 761.338, 343.603 763.750 C 345.329 766.513, 349.085 767.969, 354.527 767.985 C 360.426 768.003, 364 765.933, 364 762.500 C 364 757.818, 356.954 755.828, 347.607 757.868 M 389.272 758.190 C 383.156 761.198, 386.738 766.917, 394.861 767.111 C 402.495 767.293, 404.405 766.936, 406.451 764.943 C 408.038 763.397, 408.220 762.527, 407.430 760.272 C 406.495 757.604, 406.177 757.492, 398.979 757.297 C 394.866 757.186, 390.497 757.588, 389.272 758.190 M 659.125 757.902 C 657.247 759.091, 657.391 763.820, 659.367 765.795 C 660.549 766.977, 662.872 767.412, 668.008 767.412 C 673.798 767.412, 675.400 767.045, 677.121 765.323 C 679.688 762.756, 678.986 759.770, 675.434 758.152 C 672.482 756.807, 661.128 756.633, 659.125 757.902 M 706.250 757.706 C 704.470 758.048, 704 758.815, 704 761.370 C 704 766.057, 705.522 767, 713.089 767 C 718.227 767, 720.326 766.551, 722.139 765.063 C 724.056 763.490, 724.293 762.784, 723.402 761.313 C 721.137 757.575, 714.345 756.147, 706.250 757.706" stroke="none" fill="#e0e0d3" fill-rule="evenodd"/></svg>